<svg xmlns="http://www.w3.org/2000/svg" width="800" height="600" viewBox="0 0 800 600"><defs><linearGradient id="g" x2="1" y2="1"><stop stop-color="#dfe8fa"/><stop offset="1" stop-color="#fff"/></linearGradient></defs><rect width="800" height="600" fill="url(#g)"/><circle cx="680" cy="70" r="190" fill="#fff" opacity=".35"/><ellipse cx="400" cy="540" rx="285" ry="24" fill="#20324a" opacity=".09"/><rect x="245" y="75" width="310" height="450" rx="53" fill="#202e44"/><rect x="255" y="86" width="290" height="428" rx="46" fill="#f1d7e2"/><circle cx="329" cy="161" r="42" fill="#d6bdcd" stroke="#fff" stroke-width="7"/><circle cx="329" cy="161" r="25" fill="#29394f"/><circle cx="431" cy="230" r="42" fill="#d6bdcd" stroke="#fff" stroke-width="7"/><circle cx="431" cy="230" r="25" fill="#29394f"/><circle cx="394" cy="326" r="26" fill="#e9c5d7"/><path d="M394 299c-10-15-28-12-29 7-3 21 17 38 29 43 15-8 31-26 28-43-2-18-20-22-28-7" fill="#f5f0f3"/><rect x="30" y="28" width="155" height="38" rx="19" fill="#fff" opacity=".94"/><text x="107" y="53" text-anchor="middle" font-family="Arial,sans-serif" font-weight="700" font-size="18" fill="#126b78">DEMO GÖRSEL</text><text x="400" y="580" text-anchor="middle" font-family="Arial,sans-serif" font-size="22" font-weight="700" fill="#34495e">iPhone 13</text></svg>